<?xml version="1.0" encoding="UTF-8" standalone="no"?>
<!-- Creator: CorelDRAW 2018 (64-Bit) -->

<svg
   xml:space="preserve"
   width="263"
   height="66"
   version="1.1"
   style="clip-rule:evenodd;fill-rule:evenodd;image-rendering:optimizeQuality;shape-rendering:geometricPrecision;text-rendering:geometricPrecision"
   viewBox="0 0 6958.5855 1746.2511"
   id="svg4"
   sodipodi:docname="logo_dark.svg"
   inkscape:version="1.3.2 (091e20e, 2023-11-25, custom)"
   xmlns:inkscape="http://www.inkscape.org/namespaces/inkscape"
   xmlns:sodipodi="http://sodipodi.sourceforge.net/DTD/sodipodi-0.dtd"
   xmlns="http://www.w3.org/2000/svg"
   xmlns:svg="http://www.w3.org/2000/svg"><sodipodi:namedview
   id="namedview4"
   pagecolor="#505050"
   bordercolor="#eeeeee"
   borderopacity="1"
   inkscape:showpageshadow="0"
   inkscape:pageopacity="0"
   inkscape:pagecheckerboard="0"
   inkscape:deskcolor="#505050"
   inkscape:document-units="mm"
   inkscape:zoom="3.1579862"
   inkscape:cx="287.84166"
   inkscape:cy="287.99999"
   inkscape:window-width="3840"
   inkscape:window-height="2054"
   inkscape:window-x="2869"
   inkscape:window-y="-11"
   inkscape:window-maximized="1"
   inkscape:current-layer="Layer_x0020_1" />
 <defs
   id="defs1">
  <style
   type="text/css"
   id="style1">
   <![CDATA[
    .fil0 {fill:#020C13}
    .fil2 {fill:#1574C2}
    .fil4 {fill:white}
    .fil3 {fill:white}
    .fil1 {fill:white;fill-rule:nonzero}
   ]]>
  </style>
 </defs>
 <g
   id="Layer_x0020_1"
   inkscape:label="Layer 1"
   inkscape:groupmode="layer">
  <metadata
   id="CorelCorpID_0Corel-Layer" />
  
  <g
   id="_1999923225328"
   transform="matrix(0.53374645,0,0,0.53374645,-588.9298,-3195.8271)">
   <g
   id="g2">
    <path
   class="fil1"
   d="m 6087.97,6786.72 v 898.4 h 156.57 v -898.4 z m 1077.11,621.17 -480.24,-621.17 h -146.09 v 898.4 h 156.57 v -639.15 l 494.33,639.15 h 132 v -898.4 H 7165.08 Z M 8418,7234.63 c 0,-63.3 -11.55,-122.35 -34.66,-177.11 -23.1,-54.75 -55.83,-102.24 -98.17,-142.45 -42.36,-40.22 -92.85,-71.65 -151.44,-94.34 -58.63,-22.67 -122.99,-34.01 -193.17,-34.01 h -334.97 v 898.4 h 334.97 c 70.18,0 134.54,-11.55 193.17,-34.66 58.59,-23.1 109.08,-54.73 151.44,-94.96 42.34,-40.22 75.07,-87.92 98.17,-143.12 23.11,-55.17 34.66,-114.42 34.66,-177.75 z m -165.56,2.57 c 0,44.7 -7.49,85.79 -22.46,122.99 -14.97,37.46 -36.15,69.73 -63.1,96.68 -26.96,27.19 -59.89,48.14 -98.4,63.33 -38.71,14.97 -81.51,22.47 -128.77,22.47 h -177.54 v -613.48 h 177.54 c 47.26,0 90.06,7.7 128.77,23.08 38.51,15.63 71.44,37.02 98.4,64.62 26.95,27.36 48.13,59.89 63.1,97.32 14.97,37.22 22.46,78.29 22.46,122.99 z m 1164.38,-450.48 h -156.58 v 517.23 c 0,82.99 -20.33,145.45 -60.74,187.37 -40.43,41.92 -95.83,62.9 -166.42,62.9 -71.45,0 -127.26,-21.82 -167.69,-65.46 -40.43,-43.65 -60.76,-107.39 -60.76,-191.23 v -510.81 h -156.58 v 517.23 c 0,65.02 8.99,122.12 26.96,171.33 17.97,49.21 43.62,90.49 77.01,123.84 33.35,33.39 73.58,58.4 120.63,75.09 47.06,16.68 99.69,25.03 157.86,25.03 59.04,0 112.31,-8.35 159.8,-25.03 47.47,-16.69 87.9,-41.92 121.28,-75.71 33.37,-33.81 59.25,-75.94 77.65,-126.43 18.38,-50.47 27.58,-109.08 27.58,-175.83 z m 1051.44,754.66 -101.38,-102.68 c -38.51,35.94 -77.45,64.38 -116.8,85.35 -39.36,20.95 -86.41,31.45 -141.17,31.45 -42.8,0 -82.36,-8.34 -118.71,-25.03 -36.37,-16.68 -67.82,-39.58 -94.34,-68.67 -26.52,-29.09 -47.06,-63.1 -61.61,-102.02 -14.56,-38.94 -21.82,-80.66 -21.82,-125.15 0,-44.49 7.26,-85.97 21.82,-124.48 14.55,-38.51 35.09,-72.09 61.61,-100.76 26.52,-28.65 57.97,-51.34 94.34,-68.03 36.35,-16.66 75.91,-25.03 118.71,-25.03 51.34,0 97.11,10.29 137.32,30.81 40.22,20.54 78.29,47.49 114.23,80.86 l 101.38,-116.78 c -21.38,-20.54 -44.05,-39.38 -68,-56.48 -23.98,-17.09 -50.06,-31.86 -78.3,-44.28 -28.24,-12.4 -59.25,-22.03 -93.04,-28.88 -33.81,-6.83 -71.26,-10.27 -112.31,-10.27 -68.44,0 -130.92,12.2 -187.38,36.58 -56.47,24.39 -105.25,57.76 -146.3,100.12 -41.1,42.34 -72.96,91.75 -95.62,148.23 -22.7,56.48 -34.02,116.81 -34.02,180.96 0,65.03 11.55,125.79 34.66,182.24 23.08,56.48 54.96,105.46 95.6,146.95 40.64,41.51 88.77,74.24 144.4,98.19 55.61,23.98 116.37,35.94 182.24,35.94 41.93,0 80.2,-3.64 114.88,-10.91 34.66,-7.27 66.52,-17.97 95.6,-32.09 29.09,-14.12 56.25,-30.78 81.51,-50.03 25.24,-19.26 49.4,-41.31 72.5,-66.11 z m 598.39,-608.34 h 284.93 v -146.32 h -729 v 146.32 h 284.93 v 752.08 h 159.14 z m 513.68,-146.32 v 898.4 h 156.57 v -898.4 z m 819.12,690.48 -270.79,-690.48 h -174.54 l 373.47,904.82 h 138.6 l 373.47,-904.82 H 12669 Z m 647.17,-317.01 v 524.93 h 671.23 v -142.45 h -514.66 v -240.01 h 450.5 v -142.47 z"
   id="path1" />
    <path
   class="fil1"
   d="M 6444.68,8461.44 6331.2,8302.33 c 14.81,-4.01 28.31,-9.7 40.5,-17.12 12.22,-7.41 22.74,-16.42 31.54,-27.03 8.82,-10.59 15.7,-22.8 20.72,-36.62 5,-13.83 7.52,-29.53 7.52,-47.15 0,-20.4 -3.62,-38.92 -10.82,-55.54 -7.22,-16.62 -17.51,-30.62 -30.92,-42.01 -13.43,-11.44 -29.84,-20.24 -49.26,-26.43 -19.39,-6.24 -41.12,-9.33 -65.16,-9.33 h -187.33 v 420.34 h 73.25 v -146.51 h 92.79 l 103.58,146.51 z m -88.29,-283.11 c 0,21.7 -7.79,39.01 -23.49,51.82 -15.64,12.93 -36.72,19.32 -63.26,19.32 h -108.4 v -141.72 h 107.78 c 27.73,0 49.25,5.92 64.45,17.84 15.31,11.8 22.92,29.4 22.92,52.74 z m 635,-137.23 h -311.06 v 420.34 h 314.08 v -66.65 H 6753.58 V 8282.5 h 210.81 v -66.67 h -210.81 v -108.08 h 237.81 z m 466.87,-3 h -68.49 l -184.95,423.34 h 75.69 l 43.23,-101.47 h 198.77 l 42.63,101.47 h 78.07 z m 37.22,256.41 h -144.72 l 72.06,-168.14 z m 433.23,-143.5 c 0,-14.01 6.03,-25.95 18.04,-35.76 12.01,-9.81 28.79,-14.69 50.4,-14.69 19.23,0 38.25,3.69 57.05,11.11 18.82,7.41 37.84,18.11 57.05,32.12 l 39.65,-55.86 c -21.61,-17.19 -44.74,-30.3 -69.38,-39.33 -24.59,-9.01 -52.33,-13.48 -83.16,-13.48 -20.78,0 -40.02,2.89 -57.53,8.68 -17.62,5.8 -32.64,14.12 -45.15,24.92 -12.49,10.82 -22.3,23.72 -29.52,38.76 -7.08,14.99 -10.71,31.72 -10.71,50.13 0,19.62 3.1,36.23 9.33,49.83 6.19,13.61 15.31,25.21 27.12,34.81 11.8,9.63 26.49,17.63 43.94,24.02 17.51,6.44 37.4,12.22 59.93,17.45 19.62,4.79 35.51,9.39 47.84,13.79 12.22,4.41 21.82,9.13 28.93,14.12 6.99,5.02 11.8,10.52 14.41,16.51 2.59,6.02 3.9,12.81 3.9,20.42 0,16.41 -6.72,29.41 -20.12,39.03 -13.44,9.61 -31.52,14.42 -54.35,14.42 -26.43,0 -50.04,-4.7 -70.85,-14.14 -20.81,-9.4 -41.42,-22.9 -61.86,-40.53 l -44.42,52.86 c 25.21,22.81 52.65,39.74 82.26,50.75 29.64,11 60.65,16.5 93.08,16.5 22.03,0 42.22,-2.8 60.63,-8.41 18.31,-5.6 34.15,-13.8 47.15,-24.62 13.11,-10.8 23.33,-24 30.73,-39.63 7.29,-15.61 11,-33.42 11,-53.43 0,-17.62 -2.88,-32.94 -8.71,-45.95 -5.79,-13 -14.41,-24.41 -25.62,-34.22 -11.19,-9.81 -25.4,-18.11 -42.43,-24.92 -17,-6.81 -36.62,-13.02 -58.63,-18.61 -20.12,-4.81 -36.65,-9.4 -49.76,-13.8 -13.02,-4.45 -23.22,-9.24 -30.74,-14.42 -7.38,-5.22 -12.49,-10.84 -15.31,-16.82 -2.77,-6.03 -4.19,-13.23 -4.19,-21.61 z m 901.63,99.68 c 0,-29.64 -5.43,-57.67 -16.23,-84.1 -10.81,-26.4 -25.8,-49.42 -45.01,-69.06 -19.23,-19.57 -42.27,-35.09 -69.06,-46.53 -26.84,-11.41 -56.46,-17.1 -88.89,-17.1 -32.43,0 -62.07,5.8 -88.86,17.42 -26.84,11.6 -50.04,27.32 -69.68,47.13 -19.62,19.82 -34.82,42.95 -45.64,69.36 -10.79,26.42 -16.2,54.46 -16.2,84.07 0,29.64 5.41,57.65 16.2,84.07 10.82,26.43 25.81,49.44 45.04,69.06 19.21,19.62 42.22,35.12 69.06,46.53 26.82,11.42 56.43,17.12 88.89,17.12 32.41,0 62.05,-5.82 88.86,-17.42 26.82,-11.62 50.04,-27.34 69.66,-47.12 19.62,-19.83 34.82,-42.95 45.63,-69.38 10.8,-26.41 16.23,-54.44 16.23,-84.05 z m -77.47,1.19 c 0,20.42 -3.53,39.72 -10.52,57.94 -7.01,18.23 -16.71,34.04 -29.13,47.43 -12.4,13.43 -27.32,24.02 -44.72,31.83 -17.42,7.82 -36.54,11.74 -57.35,11.74 -20.81,0 -40.04,-4.04 -57.64,-12.01 -17.63,-8.02 -32.74,-18.82 -45.34,-32.46 -12.63,-13.59 -22.42,-29.52 -29.41,-47.72 -7.04,-18.2 -10.54,-37.54 -10.54,-57.94 0,-20.45 3.5,-39.75 10.54,-57.95 6.99,-18.24 16.69,-34.03 29.11,-47.44 12.42,-13.43 27.32,-24.02 44.72,-31.84 17.42,-7.82 36.53,-11.69 57.37,-11.69 20.81,0 40.02,3.99 57.62,11.99 17.63,8 32.73,18.84 45.36,32.43 12.61,13.62 22.4,29.52 29.41,47.72 6.99,18.25 10.52,37.55 10.52,57.97 z m 618.2,79.88 -224.7,-290.66 H 9078 v 420.34 h 73.26 V 8162.4 l 231.29,299.04 h 61.77 V 8041.1 h -73.25 z m 343.72,-290.66 v 420.34 h 73.3 V 8041.1 Z m 637.42,290.66 -224.67,-290.66 h -68.37 v 420.34 h 73.25 V 8162.4 l 231.3,299.04 h 61.75 V 8041.1 h -73.26 z m 714.26,71.47 v -176.56 h -178.94 v 64.24 H 10995 v 79.08 c -12.79,9.7 -27.89,17.4 -45.31,23.29 -17.45,5.82 -36.13,8.73 -56.16,8.73 -21.64,0 -41.14,-3.8 -58.56,-11.41 -17.4,-7.61 -32.41,-18.2 -45.04,-31.63 -12.58,-13.41 -22.3,-29.32 -29.11,-47.86 -6.81,-18.41 -10.22,-38.51 -10.22,-60.15 0,-20.4 3.5,-39.72 10.54,-57.73 6.99,-18.11 16.62,-33.93 28.79,-47.52 12.22,-13.64 26.63,-24.43 43.25,-32.25 16.62,-7.82 34.52,-11.69 53.75,-11.69 13.2,0 25.33,1.1 36.33,3.3 11.02,2.2 21.11,5.18 30.32,9.01 9.22,3.78 18,8.5 26.43,14.07 8.39,5.62 16.62,11.83 24.6,18.66 l 46.87,-55.86 c -10.84,-9.21 -21.94,-17.33 -33.35,-24.32 -11.42,-7.01 -23.5,-12.9 -36.33,-17.71 -12.81,-4.82 -26.7,-8.51 -41.74,-11.12 -15.01,-2.61 -31.72,-3.9 -50.13,-3.9 -31.63,0 -60.74,5.8 -87.37,17.42 -26.64,11.6 -49.56,27.32 -68.74,47.13 -19.23,19.82 -34.15,42.95 -44.74,69.36 -10.64,26.42 -15.93,54.46 -15.93,84.07 0,30.8 5.2,59.43 15.61,85.86 10.4,26.43 25.12,49.35 44.12,68.79 19.02,19.39 41.94,34.61 68.78,45.61 26.82,11.02 56.64,16.52 89.46,16.52 18.41,0 36.04,-1.72 52.86,-5.11 16.8,-3.41 32.52,-8.09 47.15,-14.12 14.58,-5.98 28.21,-12.99 40.8,-21.01 12.63,-8 24.13,-16.42 34.54,-25.19 z"
   id="path2" />
    <polygon
   class="fil2"
   points="13046.62,6786.72 13046.62,6929.19 13711.43,6929.19 13711.43,6786.72 "
   id="polygon2" />
   </g>
   <g
   id="g4">
    <path
   class="fil2"
   d="m 4962.01,8853.74 v -188.35 l -828.17,-0.51 c -270.49,-0.22 -401.6,-554.75 203.4,-567.19 v -189.16 c -571.56,-12.99 -569.47,-558.93 -12.85,-572.03 l 3.36,-189.95 C 3748.54,7112.54 3833.95,6586.59 4148.34,6576 l 813.67,-1.69 v -188.07 l -822.28,1.08 c -437.1,7.86 -594.43,599.04 -210,831.09 l 29.97,18.07 -30.12,17.8 c -280.44,165.59 -284.31,562.05 -4.79,731 l 29.59,17.88 -29.59,17.89 c -370.46,223.78 -215.13,832.29 204.57,832.51 z"
   id="path3" />
    <path
   class="fil2"
   d="m 1522.14,6386.26 v 187.91 l 920.83,2.47 c 270.56,0.35 401.57,554.73 -203.44,567.16 v 189.17 c 574.1,12.89 567.51,558.05 12.87,571.18 l -3.34,189.94 c 588.76,33.65 483.14,570.22 179.41,570.53 l -906.33,0.85 v 188.27 l 914.99,-0.44 c 437,-7.8 594.25,-599.18 209.99,-831.05 l -29.97,-18.08 30.12,-17.79 c 279.96,-165.35 283.94,-561.5 4.75,-730.17 l -29.62,-17.88 29.64,-17.88 c 364.2,-219.81 228.77,-816.48 -204.96,-832.56 z"
   id="path4" />
    <polygon
   class="fil3"
   points="3356.59,6546.87 3167.91,6548.36 3190.58,8739.73 3379.26,8738.23 "
   id="polygon4" />
   </g>
   <rect
   class="fil4"
   x="5496.6899"
   y="6227.3599"
   width="56.599998"
   height="2785.24"
   id="rect4" />
  </g>
 </g>
</svg>
